<svg width="1440" height="281" viewBox="0 0 1440 281" fill="none" xmlns="http://www.w3.org/2000/svg">
<path d="M981.507 281C956.153 281 930.561 276.727 903.548 268.005C900.682 267.08 897.81 266.155 894.93 265.229C868.464 256.71 841.098 247.903 815.326 237.344C766.836 217.482 710.925 208.859 649.159 211.736C598.002 214.113 548.234 223.999 502.074 234.327C496.562 235.561 490.925 236.906 485.475 238.204C457.923 244.775 429.433 251.569 400.936 248.185C377.459 245.397 353.703 241.805 330.729 238.333C298.483 233.459 265.141 228.418 232.055 225.522C191.212 221.944 154.424 221.485 119.589 224.117C80.3491 227.083 43.2543 234.196 9.33492 245.262L9.20288 244.853C43.1582 233.775 80.2854 226.654 119.561 223.687C154.419 221.053 191.23 221.512 232.095 225.092C265.195 227.991 298.545 233.033 330.796 237.908C353.766 241.38 377.518 244.97 400.988 247.758C429.409 251.134 457.863 244.348 485.382 237.784C490.832 236.484 496.47 235.14 501.986 233.905C548.165 223.573 597.954 213.683 649.143 211.303C710.981 208.429 766.944 217.056 815.492 236.943C841.248 247.495 868.606 256.301 895.065 264.817C897.944 265.744 900.816 266.67 903.683 267.594C933.667 277.275 961.896 281.466 989.991 280.408C1039.6 278.54 1088.28 263.637 1131.23 250.489C1170.99 238.317 1213.24 245.389 1254.1 252.229C1259.53 253.137 1265.14 254.077 1270.58 254.94C1322.94 263.242 1383.51 269.987 1439.83 244.779L1440 245.172C1383.58 270.428 1322.93 263.676 1270.52 255.365C1265.07 254.5 1259.46 253.561 1254.03 252.652C1213.22 245.822 1171.02 238.757 1131.35 250.9C1088.38 264.055 1039.67 278.967 990.007 280.838C987.176 280.946 984.343 281 981.507 281Z" fill="url(#paint0_linear_105_361)"/>
<path d="M983.358 274.685C957.079 274.685 932.956 271.314 910.404 264.537C876.272 254.279 847.338 244.103 821.951 233.427C769.817 211.502 709.926 201.37 643.951 203.314C587.926 204.964 532.735 215.22 486.136 225.037C479.341 226.468 472.364 228.07 465.616 229.618C436.638 236.269 406.671 243.146 377.015 240.224C352.396 237.796 327.488 234.349 303.4 231.014C275.405 227.14 246.457 223.132 217.796 220.705C179.246 217.438 144.819 216.858 112.55 218.927C75.1099 221.328 41.2495 227.207 9.0342 236.901L8.91113 236.489C41.1585 226.786 75.0506 220.901 112.523 218.498C144.812 216.428 179.259 217.009 217.832 220.277C246.504 222.705 275.457 226.713 303.457 230.588C327.541 233.922 352.445 237.369 377.056 239.795C406.644 242.713 436.575 235.843 465.519 229.199C472.271 227.652 479.248 226.048 486.046 224.616C532.666 214.796 587.878 204.535 643.937 202.884C709.976 200.942 769.924 211.082 822.115 233.03C847.488 243.7 876.407 253.872 910.525 264.125C945.542 274.648 984.358 276.944 1029.19 271.146C1068.86 266.014 1108.38 255.338 1146.6 245.015L1150.08 244.077C1188.46 233.716 1228.3 240.674 1266.82 247.402C1272.18 248.338 1277.72 249.306 1283.13 250.203C1315.48 255.563 1340.09 257.398 1362.93 256.157C1391.58 254.599 1416.7 247.995 1439.73 235.97L1439.93 236.351C1416.84 248.406 1391.67 255.024 1362.96 256.586C1340.08 257.83 1315.44 255.993 1283.06 250.627C1277.65 249.731 1272.11 248.763 1266.75 247.826C1228.27 241.105 1188.48 234.155 1150.19 244.492L1146.71 245.43C1108.48 255.757 1068.94 266.436 1029.24 271.572C1014.03 273.593 998.703 274.633 983.358 274.685Z" fill="url(#paint1_linear_105_361)"/>
<path d="M981.661 269.35C958.506 269.35 937.169 266.536 916.94 260.848C888.721 252.912 858.957 242.227 828.476 229.089C772.888 205.132 709.245 193.52 639.326 194.585C578.361 195.51 517.596 206.276 471.468 215.552C463.449 217.164 455.2 219.005 447.223 220.785C421.059 226.624 394.119 232.634 367.362 232.635C363.24 232.635 359.127 232.493 355.016 232.185C329.052 230.241 302.779 226.983 277.37 223.832C253.54 220.877 228.898 217.822 204.559 215.856C126.37 209.541 64.1532 213.578 8.75636 228.555L8.64526 228.141C64.0904 213.148 126.355 209.11 204.593 215.43C228.941 217.396 253.587 220.452 277.422 223.407C302.826 226.557 329.094 229.813 355.048 231.758C385.772 234.057 416.965 227.098 447.13 220.365C455.11 218.584 463.361 216.743 471.385 215.13C517.53 205.85 578.32 195.08 639.318 194.154C709.297 193.089 773 204.712 828.643 228.694C859.107 241.823 888.851 252.502 917.053 260.433C943.867 267.974 972.642 270.456 1005.02 268.015C1057.32 264.076 1109.41 251.786 1159.78 239.899L1168.25 237.901C1205.14 229.214 1242.63 236.053 1278.88 242.662C1284.28 243.646 1289.86 244.664 1295.33 245.61C1324.29 250.613 1347.85 251.997 1369.49 249.961C1395.47 247.518 1418.42 240.073 1439.66 227.204L1439.88 227.572C1418.58 240.477 1395.57 247.94 1369.53 250.389C1347.85 252.427 1324.25 251.044 1295.26 246.033C1289.79 245.087 1284.21 244.07 1278.81 243.085C1242.6 236.482 1205.15 229.655 1168.35 238.32L1159.88 240.317C1109.49 252.207 1057.39 264.501 1005.05 268.442C997.045 269.047 989.249 269.349 981.661 269.35Z" fill="url(#paint2_linear_105_361)"/>
<path d="M979.602 263.766C958.429 263.766 939.82 261.483 922.445 256.836C890.282 248.232 858.647 234.922 834.675 224.289C776.647 198.545 710.308 185.494 637.487 185.494C637.062 185.494 636.64 185.494 636.215 185.494C570.235 185.63 505.873 196.609 457.172 206.159C448.195 207.922 438.95 209.957 430.01 211.929C399.635 218.624 368.224 225.543 337.308 224.141C309.224 222.862 280.786 219.799 253.285 216.832C233.334 214.683 212.703 212.459 192.374 210.936C116.983 205.287 60.2754 208.153 8.50301 220.228L8.40686 219.809C60.2216 207.724 116.968 204.856 192.406 210.508C212.743 212.031 233.376 214.255 253.331 216.405C280.826 219.367 309.257 222.431 337.327 223.709C368.196 225.113 399.572 218.197 429.919 211.506C438.861 209.535 448.109 207.497 457.091 205.736C505.81 196.182 570.2 185.199 636.215 185.062C636.636 185.062 637.069 185.062 637.488 185.062C710.374 185.062 776.762 198.123 834.848 223.894C858.803 234.521 890.419 247.822 922.553 256.418C947.82 263.177 975.71 264.923 1010.33 261.914C1058.55 257.721 1106.84 247.873 1153.54 238.349C1164.09 236.199 1175 233.972 1185.73 231.85C1220.81 224.909 1255.85 231.579 1289.74 238.029C1294.82 238.997 1300.08 239.998 1305.26 240.936C1324.49 244.427 1347.17 247.708 1369.53 245.586C1393.55 243.308 1417.12 234.194 1439.59 218.504L1439.83 218.858C1417.3 234.593 1393.67 243.727 1369.57 246.015C1347.16 248.139 1324.44 244.854 1305.18 241.36C1300 240.421 1294.74 239.42 1289.66 238.451C1255.81 232.009 1220.81 225.347 1185.81 232.271C1175.09 234.394 1164.17 236.618 1153.62 238.77C1106.91 248.297 1058.61 258.148 1010.36 262.342C999.49 263.289 989.279 263.766 979.602 263.766Z" fill="url(#paint3_linear_105_361)"/>
<path d="M976.641 258.32C960.631 258.32 944.058 256.921 927.834 252.813C898.375 245.355 869.854 232.362 842.272 219.796L840.187 218.846C779.218 191.083 709.89 176.658 634.128 175.976C579.697 175.478 522.354 181.661 448.227 195.999C437.978 197.981 427.46 200.292 417.288 202.528C386.084 209.385 353.811 216.471 321.875 215.938C287.525 215.36 252.764 212.579 219.147 209.89C150.144 204.369 78.7929 198.663 8.2928 211.931L8.2146 211.508C78.7694 198.228 150.151 203.939 219.18 209.461C252.79 212.151 287.545 214.931 321.881 215.508C353.769 216.049 386.015 208.96 417.195 202.108C427.37 199.872 437.891 197.56 448.145 195.576C522.301 181.233 579.654 175.05 634.131 175.546C709.953 176.229 779.339 190.666 840.363 218.456L842.449 219.406C870.013 231.963 898.517 244.947 927.938 252.396C957.964 259.998 989.22 258.303 1015.84 255.642C1064.72 250.753 1113.96 241.847 1161.59 233.234C1173.83 231.02 1186.49 228.729 1198.94 226.546C1233 220.57 1266.54 227.177 1298.98 233.566C1304.53 234.658 1310.26 235.787 1315.92 236.838C1333.29 240.068 1353.86 242.975 1374.67 240.046C1396.74 236.94 1417.96 227.075 1439.53 209.887L1439.79 210.224C1418.16 227.461 1396.88 237.354 1374.73 240.472C1353.86 243.41 1333.25 240.498 1315.84 237.262C1310.18 236.209 1304.45 235.08 1298.9 233.987C1266.5 227.607 1232.99 221.006 1199.01 226.969C1186.57 229.153 1173.91 231.443 1161.66 233.657C1114.03 242.272 1064.78 251.18 1015.88 256.07C1003.6 257.298 990.324 258.32 976.641 258.32Z" fill="url(#paint4_linear_105_361)"/>
<path d="M972.712 252.888C958.402 252.888 944.039 251.634 929.978 248.054C905.151 241.735 881.318 230.281 858.269 219.204C853.84 217.075 849.262 214.875 844.782 212.763C812.335 197.469 777.132 185.739 740.148 177.901C705.199 170.493 668.294 166.474 630.46 165.958C574.631 165.199 514.445 171.529 441.038 185.89C429.766 188.096 418.232 190.679 407.077 193.177C376.367 200.056 344.612 207.166 313.034 207.721C273.179 208.416 232.817 205.804 193.781 203.275C133.017 199.338 70.1872 195.266 8.12519 203.662L8.06836 203.236C70.1714 194.835 133.025 198.907 193.808 202.846C232.836 205.375 273.189 207.986 313.028 207.29C344.563 206.737 376.297 199.63 406.986 192.757C418.143 190.258 429.68 187.675 440.957 185.468C514.392 171.101 574.605 164.767 630.467 165.527C668.329 166.043 705.261 170.066 740.237 177.479C777.253 185.324 812.488 197.065 844.964 212.373C849.446 214.485 854.022 216.686 858.454 218.814C881.486 229.883 905.299 241.329 930.084 247.637C958.417 254.849 988.012 252.599 1015.9 249.677C1057.13 245.356 1098.76 238.715 1139.02 232.29C1162.18 228.592 1186.14 224.771 1209.75 221.434C1242.86 216.753 1273.5 222.853 1305.93 229.312C1312.22 230.564 1318.73 231.86 1325.19 233.054C1339.57 235.717 1358.51 238.342 1377.41 234.965C1398.36 231.221 1418.08 220.545 1439.48 201.364L1439.76 201.685C1418.3 220.921 1398.51 231.63 1377.48 235.388C1358.52 238.776 1339.53 236.147 1325.11 233.478C1318.65 232.282 1312.14 230.987 1305.85 229.733C1273.45 223.285 1242.85 217.19 1209.81 221.86C1186.2 225.196 1162.25 229.018 1139.09 232.714C1098.82 239.139 1057.18 245.783 1015.94 250.105C1001.84 251.583 987.305 252.888 972.712 252.888Z" fill="url(#paint5_linear_105_361)"/>
<path d="M968.027 247.395C955.197 247.395 942.456 246.229 930.019 242.928C908.296 237.163 887.716 226.409 867.816 216.008C860.116 211.984 852.154 207.823 844.314 204.059C811.972 188.529 776.946 176.518 740.209 168.358C705.311 160.607 668.529 156.25 630.883 155.407C573.546 154.126 512.758 160.4 439.569 175.16C426.928 177.71 414.028 180.743 401.551 183.676C371.581 190.722 340.59 198.008 309.663 199.511C262.372 201.811 214.332 199.321 167.873 196.913C115.504 194.199 61.3493 191.392 8.00946 195.429L7.97742 194.999C61.3433 190.958 115.511 193.767 167.896 196.482C214.344 198.89 262.374 201.378 309.642 199.081C340.53 197.579 371.502 190.298 401.454 183.256C413.934 180.322 426.836 177.288 439.485 174.738C512.707 159.971 573.532 153.695 630.892 154.975C668.566 155.819 705.376 160.18 740.301 167.937C777.07 176.106 812.127 188.126 844.497 203.67C852.342 207.437 860.308 211.6 868.011 215.625C887.892 226.015 908.449 236.759 930.127 242.512C957.755 249.843 986.962 246.609 1015.21 243.48L1015.63 243.433C1048.55 239.786 1081.9 234.97 1114.15 230.312C1148.01 225.421 1183.02 220.364 1217.61 216.652C1249.32 213.247 1278.42 219.022 1309.23 225.136C1316.62 226.602 1324.26 228.118 1331.88 229.484C1357.53 234.079 1371.98 231.891 1380.62 229.846C1405.72 223.902 1425.24 207.009 1439.44 192.954L1439.74 193.261C1425.5 207.354 1405.92 224.296 1380.72 230.264C1362.6 234.555 1344.13 232.115 1331.8 229.907C1324.18 228.54 1316.54 227.024 1309.15 225.558C1278.37 219.45 1249.3 213.683 1217.65 217.079C1183.08 220.79 1148.07 225.847 1114.21 230.737C1081.96 235.396 1048.61 240.212 1015.68 243.86L1015.25 243.908C999.667 245.635 983.782 247.395 968.027 247.395Z" fill="url(#paint6_linear_105_361)"/>
<path d="M961.678 241.75C949.88 241.75 938.208 240.585 926.93 237.247C908.16 231.69 890.606 221.436 873.63 211.521C865.823 206.96 857.75 202.245 849.76 198.118C816.781 181.086 780.987 167.857 743.373 158.799C707.393 150.135 669.543 145.228 630.869 144.217C573.24 142.708 510.65 149.446 439.53 164.814C426.253 167.683 412.707 171.177 399.607 174.552C371.842 181.71 343.132 189.111 314.455 191.308C254.17 195.924 192.636 193.151 133.127 190.468C92.0677 188.617 49.6038 186.702 7.95947 187.237L7.95349 186.807C49.6162 186.274 92.0805 188.187 133.147 190.039C192.643 192.721 254.165 195.495 314.423 190.879C343.063 188.687 371.754 181.289 399.5 174.136C412.605 170.758 426.155 167.264 439.439 164.394C510.594 149.019 573.219 142.278 630.879 143.787C669.583 144.799 707.465 149.709 743.471 158.38C781.117 167.446 816.945 180.688 849.955 197.736C857.954 201.868 866.032 206.586 873.841 211.149C890.796 221.053 908.325 231.293 927.048 236.835C951.505 244.074 977.861 241.053 1003.35 238.131C1005.53 237.882 1007.69 237.635 1009.85 237.393C1036.76 234.39 1064.08 230.794 1090.51 227.316C1133.02 221.722 1176.96 215.938 1220.36 212.464C1251.15 210 1279.37 215.474 1309.24 221.272C1317.69 222.911 1326.42 224.606 1335.15 226.09C1354.17 229.323 1369.31 228.928 1382.8 224.849C1406.13 217.793 1424.52 200.581 1439.42 184.676L1439.73 184.971C1424.79 200.918 1406.35 218.175 1382.92 225.26C1369.37 229.36 1354.16 229.759 1335.08 226.515C1326.34 225.029 1317.61 223.333 1309.16 221.694C1279.32 215.903 1251.12 210.431 1220.4 212.892C1177.01 216.366 1133.07 222.149 1090.57 227.742C1064.14 231.22 1036.81 234.817 1009.9 237.82C1007.74 238.06 1005.58 238.306 1003.4 238.558C989.603 240.14 975.552 241.75 961.678 241.75Z" fill="url(#paint7_linear_105_361)"/>
<path d="M960.382 232.677C948.503 232.677 936.756 231.511 925.41 228.13C906.658 222.544 889.031 212.345 871.985 202.481C864.826 198.34 857.424 194.055 850.137 190.243C818.127 173.49 783.323 160.398 746.69 151.33C711.725 142.675 674.876 137.626 637.167 136.321C580.369 134.356 519.223 140.41 450.228 154.83C436.34 157.733 422.209 161.309 408.545 164.768C382.401 171.385 355.367 178.228 328.355 180.817C259.936 187.374 189.879 184.707 122.13 182.127C84.6551 180.701 45.9173 179.228 7.94958 179.336V178.906C45.9075 178.794 84.6688 180.271 122.147 181.697C189.883 184.277 259.924 186.942 328.314 180.389C355.296 177.803 382.313 170.964 408.441 164.353C422.11 160.893 436.244 157.316 450.142 154.411C519.172 139.983 580.352 133.928 637.182 135.893C674.921 137.199 711.799 142.253 746.793 150.914C783.459 159.989 818.295 173.093 850.334 189.861C857.63 193.68 865.036 197.964 872.199 202.109C889.223 211.96 906.828 222.146 925.532 227.718C949.645 234.902 975.636 232.046 1000.77 229.284C1002.79 229.063 1004.79 228.845 1006.78 228.63C1037.85 225.298 1069.39 221.365 1099.89 217.56C1137.51 212.867 1176.42 208.013 1214.8 204.249C1248.8 200.913 1279.86 207.056 1312.73 213.559C1319.66 214.929 1326.82 216.346 1333.97 217.657C1353.77 221.292 1368.69 221.155 1382.34 217.214C1405.9 210.408 1424.42 192.949 1439.42 176.769L1439.73 177.061C1424.69 193.286 1406.12 210.792 1382.46 217.627C1368.74 221.587 1353.76 221.727 1333.89 218.08C1326.74 216.768 1319.58 215.351 1312.65 213.981C1279.81 207.483 1248.78 201.346 1214.84 204.676C1176.47 208.441 1137.56 213.294 1099.94 217.987C1069.44 221.791 1037.9 225.725 1006.82 229.058C1004.83 229.271 1002.83 229.489 1000.82 229.711C987.448 231.181 973.833 232.677 960.382 232.677Z" fill="url(#paint8_linear_105_361)"/>
<path d="M960.561 223.13C948.141 223.13 935.834 221.946 923.927 218.452C904.363 212.711 885.768 202.448 867.786 192.523C861.92 189.286 855.855 185.938 849.926 182.85C818.952 166.71 785.196 154.018 749.594 145.127C715.82 136.692 680.107 131.6 643.446 129.994C587.646 127.546 527.839 132.689 460.603 145.713C445.875 148.565 430.94 152.104 416.496 155.526C391.791 161.38 366.245 167.435 340.741 170.303C268.286 178.456 193.926 176.276 122.017 174.169C84.5496 173.071 45.8059 171.936 7.88257 172.284L7.8783 171.854C45.8097 171.507 84.556 172.641 122.027 173.739C193.923 175.846 268.266 178.025 340.691 169.875C366.169 167.009 391.703 160.958 416.396 155.108C430.844 151.685 445.783 148.143 460.52 145.29C527.789 132.261 587.63 127.12 643.462 129.564C680.151 131.172 715.893 136.268 749.695 144.71C785.328 153.609 819.115 166.313 850.119 182.468C856.052 185.56 862.12 188.909 867.987 192.147C885.949 202.062 904.522 212.314 924.042 218.041C948.642 225.258 975.005 222.586 1000.5 220L1004.02 219.645C1062.51 213.765 1121.87 206.197 1179.28 198.88C1188.28 197.733 1197.27 196.589 1206.26 195.447C1245.06 190.525 1280.43 197.88 1317.87 205.667C1322.14 206.553 1326.54 207.469 1330.91 208.357C1345.85 211.393 1363.48 213.898 1381.04 209.471C1405.4 203.329 1424.22 185.946 1439.41 169.751L1439.72 170.046C1424.49 186.286 1405.61 203.719 1381.14 209.888C1363.5 214.336 1345.81 211.823 1330.83 208.779C1326.45 207.89 1322.05 206.973 1317.79 206.087C1280.38 198.306 1245.04 190.959 1206.31 195.873C1197.32 197.014 1188.33 198.158 1179.33 199.307C1121.92 206.625 1062.55 214.193 1004.06 220.072L1000.54 220.428C987.333 221.766 973.882 223.13 960.561 223.13Z" fill="url(#paint9_linear_105_361)"/>
<path d="M960.345 214.183C947.203 214.183 934.161 212.955 921.532 209.243C900.995 203.206 881.279 192.765 862.213 182.667C857.903 180.385 853.445 178.024 849.1 175.782C790.259 145.419 722.729 128.038 648.382 124.123C593.355 121.224 534.645 125.499 468.898 137.187C452.829 140.045 436.575 143.639 420.856 147.115C397.858 152.2 374.077 157.459 350.389 160.518C274.551 170.314 196.524 168.66 121.064 167.061C83.8624 166.272 45.3917 165.456 7.76795 166.033L7.76111 165.603C45.396 165.028 83.868 165.843 121.074 166.631C196.516 168.231 274.528 169.884 350.335 160.092C374.004 157.034 397.775 151.778 420.764 146.695C436.489 143.218 452.746 139.622 468.824 136.764C534.603 125.07 593.345 120.793 648.405 123.695C722.812 127.613 790.4 145.009 849.295 175.4C853.642 177.643 858.1 180.004 862.411 182.287C881.46 192.374 901.157 202.806 921.652 208.831C946.77 216.214 973.584 213.737 999.515 211.342L999.968 211.299C1065.44 205.253 1131.42 197.23 1196.08 187.452C1240.43 180.745 1280.89 189.69 1323.73 199.159L1327 199.882C1342.81 203.373 1361.4 206.423 1379.3 202.561C1404.82 197.058 1424.83 178.836 1439.41 163.574L1439.72 163.873C1425.1 179.177 1405.02 197.455 1379.39 202.981C1361.41 206.86 1342.77 203.803 1326.91 200.302L1323.64 199.578C1280.84 190.12 1240.42 181.183 1196.15 187.877C1131.48 197.656 1065.48 205.681 1000.01 211.727L999.554 211.77C986.6 212.967 973.423 214.183 960.345 214.183Z" fill="url(#paint10_linear_105_361)"/>
<path d="M959.764 205.8C945.402 205.8 931.697 204.463 918.336 200.471C896.437 193.929 875.236 183.092 854.732 172.613C852.38 171.409 850.039 170.215 847.708 169.03C790.724 140.073 724.904 123.14 652.075 118.697C597.595 115.373 539.758 118.822 475.265 129.239C456.995 132.19 438.555 135.994 420.722 139.672C400.066 143.932 378.706 148.338 357.497 151.443C278.917 162.945 197.829 161.835 119.413 160.763C82.6874 160.26 44.7107 159.742 7.59625 160.534L7.58728 160.104C44.7081 159.311 82.6891 159.83 119.419 160.333C197.817 161.405 278.891 162.515 357.435 151.017C378.632 147.915 399.986 143.51 420.634 139.251C438.472 135.572 456.917 131.767 475.195 128.814C539.721 118.393 597.587 114.943 652.099 118.268C724.986 122.714 790.863 139.663 847.899 168.643C850.229 169.827 852.571 171.022 854.924 172.227C875.41 182.698 896.594 193.526 918.456 200.057C942.2 207.151 967.074 205.833 994.789 203.544C1065.69 197.689 1127.74 190.052 1184.51 180.198C1230.77 172.165 1272.54 180.474 1322.34 192.17C1342.79 196.973 1359.94 199.535 1377.17 196.426C1403.88 191.611 1424.46 173.461 1439.4 158.187L1439.71 158.488C1424.72 173.808 1404.07 192.013 1377.25 196.849C1359.94 199.968 1342.75 197.401 1322.24 192.586C1272.49 180.901 1230.77 172.599 1184.58 180.619C1127.8 190.476 1065.73 198.114 994.824 203.97C982.641 204.979 971 205.8 959.764 205.8Z" fill="url(#paint11_linear_105_361)"/>
<path d="M959.614 197.998C944.434 197.998 929.157 196.616 914.45 192.089C890.141 184.609 865.557 172.383 845.802 162.56C790.474 135.049 726.155 118.605 654.629 113.685C600.471 109.96 543.305 112.626 479.859 121.834C457.813 125.035 435.603 129.343 414.124 133.51C397.162 136.8 379.623 140.202 362.271 143.039C281.532 156.235 197.97 155.702 117.155 155.19C81.0905 154.96 43.7971 154.724 7.37744 155.721L7.36548 155.291C43.7919 154.294 81.0888 154.531 117.158 154.76C197.954 155.276 281.502 155.804 362.202 142.614C379.548 139.779 397.084 136.377 414.043 133.087C435.527 128.92 457.742 124.61 479.799 121.409C543.273 112.196 600.468 109.529 654.656 113.256C726.237 118.179 790.611 134.638 845.989 162.174C865.731 171.99 890.298 184.206 914.572 191.678C938.701 199.106 964.41 198.041 988.675 196.315C1012.45 194.623 1035.88 191.874 1059.78 188.967C1067.28 188.056 1074.92 187.161 1082.31 186.301C1111.8 182.857 1142.3 179.294 1171.78 173.598C1222.8 163.741 1269.62 173.435 1317.08 185.145C1335.48 189.686 1355.1 193.879 1374.72 190.999C1403.08 186.841 1425.21 167.62 1439.39 153.525L1439.69 153.83C1429.3 164.159 1419.64 172.049 1410.15 177.952C1398.42 185.248 1386.85 189.655 1374.78 191.425C1355.08 194.315 1335.42 190.114 1316.97 185.562C1269.56 173.865 1222.79 164.18 1171.86 174.02C1142.36 179.72 1111.86 183.283 1082.36 186.728C1074.97 187.592 1067.33 188.484 1059.83 189.394C1035.92 192.302 1012.49 195.051 988.704 196.745C979.174 197.422 969.413 197.998 959.614 197.998Z" fill="url(#paint12_linear_105_361)"/>
<path d="M959.396 190.723C942.845 190.723 926.052 189.215 909.985 184.067C885.684 176.281 861.652 165.171 843.431 156.362C789.573 130.325 726.562 114.412 656.148 109.067C602.083 104.962 545.396 106.886 482.846 114.948C453.108 118.781 423.215 124.394 394.308 129.823C384.683 131.629 374.73 133.499 364.921 135.276C282.597 150.194 197.098 150.249 114.415 150.303C79.1557 150.326 42.6972 150.349 7.11981 151.535L7.10571 151.105C42.6899 149.919 79.1523 149.896 114.414 149.873C197.08 149.82 282.561 149.765 364.845 134.853C374.653 133.076 384.605 131.207 394.229 129.4C423.143 123.971 453.042 118.357 482.793 114.522C545.372 106.457 602.087 104.531 656.18 108.64C726.647 113.988 789.711 129.914 843.616 155.973C861.825 164.776 885.839 175.878 910.115 183.655C933.456 191.136 958.368 190.908 981.813 189.55C1005.56 188.174 1029.5 185.423 1050.07 182.956C1056.01 182.244 1062.07 181.538 1067.93 180.855C1097.73 177.388 1128.54 173.801 1158.16 167.571C1182.6 162.429 1207.85 161.269 1235.34 164.027C1262.45 166.746 1288.97 172.986 1311.34 178.73C1331.83 183.991 1351.88 188.522 1372.03 186.203C1394.74 183.59 1416.14 171.933 1439.38 149.515L1439.68 149.825C1416.36 172.31 1394.88 184.006 1372.08 186.63C1351.86 188.958 1331.76 184.418 1311.23 179.147C1288.88 173.405 1262.38 167.17 1235.3 164.454C1207.85 161.703 1182.65 162.857 1158.25 167.991C1128.6 174.225 1097.78 177.814 1067.98 181.284C1062.12 181.966 1056.06 182.671 1050.12 183.384C1029.54 185.853 1005.59 188.604 981.834 189.98C974.472 190.409 966.959 190.723 959.396 190.723Z" fill="url(#paint13_linear_105_361)"/>
<path d="M958.773 183.995C941.709 183.995 923.145 182.444 905.053 176.363C883.122 168.923 861.62 160.26 840.647 150.415C788.082 125.882 726.205 110.541 656.735 104.818C610.518 101.012 562.664 101.484 510.439 106.262C466.611 110.272 419.247 117.423 365.644 128.123C282.261 144.768 195.33 145.413 111.261 146.037C76.9311 146.292 41.4328 146.556 6.82111 147.915L6.80444 147.486C41.4225 146.125 76.926 145.862 111.258 145.607C195.307 144.983 282.218 144.338 365.56 127.701C419.179 116.996 466.557 109.844 510.401 105.833C562.651 101.052 610.527 100.58 656.77 104.389C726.291 110.116 788.216 125.469 840.826 150.024C861.785 159.863 883.272 168.52 905.188 175.955C928.914 183.93 953.48 184.091 974.378 183.196C996.691 182.241 1018.98 179.846 1039.73 177.401C1043.89 176.911 1048.05 176.426 1052.22 175.945C1082.54 172.434 1113.88 168.802 1143.88 162.04C1173.87 155.282 1203.92 153.614 1233.22 157.08C1256.21 159.801 1278.89 165.841 1300.82 171.681L1305.25 172.861C1323.76 177.776 1346.78 183.892 1369.15 181.975C1393.04 179.929 1415.35 168.53 1439.37 146.102L1439.66 146.416C1415.57 168.914 1393.18 180.349 1369.19 182.403C1346.75 184.329 1323.68 178.199 1305.15 173.275L1300.71 172.095C1278.8 166.258 1256.13 160.223 1233.17 157.505C1203.92 154.045 1173.91 155.711 1143.97 162.458C1113.95 169.225 1082.59 172.858 1052.27 176.371C1048.1 176.854 1043.94 177.339 1039.78 177.826C1019.01 180.272 996.723 182.668 974.395 183.624C969.38 183.841 964.15 183.995 958.773 183.995Z" fill="url(#paint14_linear_105_361)"/>
<path d="M1359.75 178.865C1339 178.865 1318.62 173.288 1298.85 167.877L1298.1 167.672C1273.75 161.009 1248.58 154.123 1223.01 151.238C1192.33 147.774 1160.8 149.83 1129.31 157.345C1098.49 164.697 1066.2 168.394 1034.97 171.973L1029.05 172.653C1010.44 174.794 988.471 177.058 966.571 177.62C939.648 178.312 918.423 175.553 899.764 168.941C879.61 161.798 858.119 153.917 837.5 144.698C810.385 132.574 780.558 122.68 748.846 115.295C720.249 108.633 689.177 103.796 656.494 100.917C563.053 92.6842 464.863 99.6268 364.649 121.549C280.696 139.916 192.794 141.148 107.786 142.339C74.48 142.805 40.0389 143.288 6.49036 144.805L6.47156 144.375C40.0278 142.858 74.4706 142.375 107.78 141.908C192.766 140.717 280.646 139.486 364.558 121.129C464.814 99.1961 563.049 92.2517 656.531 100.488C689.234 103.368 720.326 108.21 748.942 114.875C780.68 122.266 810.533 132.168 837.673 144.304C858.278 153.518 879.76 161.394 899.906 168.534C918.515 175.129 939.694 177.879 966.56 177.189C988.444 176.628 1010.4 174.365 1029 172.225L1034.92 171.546C1066.14 167.97 1098.42 164.272 1129.21 156.927C1160.75 149.4 1192.33 147.342 1223.06 150.81C1248.66 153.699 1273.85 160.592 1298.21 167.258L1298.96 167.462C1320.74 173.423 1343.27 179.586 1366.17 178.253C1379.69 177.465 1392.6 173.843 1405.64 167.182C1416.8 161.482 1427.83 153.646 1439.36 143.224L1439.64 143.545C1428.08 153.991 1417.03 161.848 1405.83 167.565C1392.74 174.254 1379.77 177.891 1366.19 178.682C1364.04 178.806 1361.9 178.868 1359.75 178.865Z" fill="url(#paint15_linear_105_361)"/>
<path d="M1359.32 175.448C1337.16 175.448 1315.35 169.313 1294.22 163.367L1292.47 162.873C1263.25 154.662 1238.83 148.155 1212.74 145.333C1180.61 141.858 1147.55 144.29 1114.48 152.565C1082.23 160.634 1048.18 164.434 1018.13 167.787C1000.65 169.739 979.895 171.754 958.547 171.899C933.581 172.057 913.164 168.847 894.232 161.757C887.642 159.289 880.868 156.856 874.317 154.507C860.97 149.717 847.17 144.765 834.043 139.188C782.859 117.443 724.467 103.753 655.531 97.3341C606.52 92.7226 557.236 91.7907 508.088 94.5461C457.298 97.4695 408.195 104.527 362.142 115.519C278.055 135.595 189.597 137.401 104.05 139.147C71.8457 139.805 38.5434 140.485 6.13361 142.141L6.11182 141.711C38.5293 140.055 71.8321 139.374 104.042 138.716C189.566 136.969 278.003 135.163 362.044 115.102C408.121 104.104 457.249 97.0435 508.064 94.1184C557.234 91.3614 606.539 92.2936 655.571 96.9072C724.551 103.33 782.985 117.031 834.21 138.793C847.328 144.365 861.121 149.316 874.462 154.103C881.015 156.455 887.791 158.886 894.383 161.355C913.265 168.427 933.651 171.63 958.546 171.471C979.874 171.325 1000.61 169.311 1018.09 167.361C1048.12 164.01 1082.15 160.212 1114.38 152.148C1147.49 143.862 1180.61 141.425 1212.79 144.907C1238.91 147.733 1263.35 154.243 1292.58 162.461L1294.34 162.955C1316.65 169.232 1339.74 175.727 1363.14 174.956C1389.13 174.103 1414.06 162.934 1439.34 140.809L1439.62 141.134C1414.26 163.326 1389.25 174.53 1363.15 175.386C1361.87 175.427 1360.59 175.448 1359.32 175.448Z" fill="url(#paint16_linear_105_361)"/>
<path d="M1359.02 172.463C1335.4 172.463 1312.21 165.75 1289.77 159.255L1286.13 158.202C1258.22 150.149 1230.83 142.676 1202.54 139.724C1168.96 136.221 1134.37 139.019 1099.75 148.045C1068.54 156.178 1035.64 160.115 1007.26 163.168C991.703 164.841 971.2 166.722 950.501 166.413C927.757 166.074 907.496 162.27 888.562 154.783C879.116 151.048 869.356 147.729 859.918 144.52C850.15 141.198 840.048 137.764 830.32 133.873C779.956 113.734 722.262 100.71 653.942 94.0565C598.696 88.6765 540.78 87.9981 481.802 92.041C447.489 94.3927 402.447 98.5611 358.322 110.011C274.499 131.76 185.846 134.123 100.112 136.408C69.0665 137.234 36.9622 138.088 5.74768 139.864L5.72375 139.434C36.9456 137.659 69.0511 136.803 100.102 135.976C185.811 133.691 274.438 131.329 358.215 109.593C402.375 98.1346 447.442 93.964 481.772 91.6111C540.774 87.5674 598.714 88.2453 653.984 93.6274C722.344 100.285 780.075 113.317 830.477 133.473C840.197 137.359 850.292 140.792 860.055 144.112C869.498 147.323 879.263 150.643 888.719 154.382C907.606 161.85 927.817 165.646 950.507 165.982C971.172 166.292 991.67 164.411 1007.21 162.74C1035.58 159.687 1068.46 155.754 1099.64 147.627C1134.31 138.59 1168.95 135.787 1202.58 139.296C1230.9 142.251 1258.32 149.729 1286.25 157.788L1289.89 158.841C1312.65 165.429 1336.2 172.254 1360.13 172.027C1387.34 171.782 1413.24 160.915 1439.32 138.802L1439.6 139.131C1413.44 161.31 1387.44 172.211 1360.13 172.457C1359.76 172.461 1359.39 172.463 1359.02 172.463Z" fill="url(#paint17_linear_105_361)"/>
<path d="M1358.71 169.835C1358.21 169.835 1357.71 169.832 1357.21 169.825C1332.72 169.495 1308.71 162.341 1285.49 155.423C1283.65 154.874 1281.81 154.327 1279.98 153.783C1252.44 145.629 1223.01 137.41 1192.6 134.329C1157.6 130.782 1121.51 133.934 1085.36 143.701C1042.75 155.209 997.816 161.37 957.202 161.37C952.274 161.37 947.415 161.279 942.626 161.097C922.085 160.379 901.842 155.934 882.872 147.976C872.331 143.591 861.421 140.176 850.87 136.874C842.82 134.354 834.496 131.749 826.388 128.73C776.675 110.216 719.58 97.8926 651.839 91.0548C595.5 85.3684 537.375 84.1191 479.081 87.3408C438.408 89.5893 395.032 93.2822 353.399 104.984C270.182 128.373 181.655 131.263 96.0438 134.059C66.1941 135.036 35.3283 136.042 5.34565 137.917L5.31873 137.487C35.3082 135.613 66.177 134.606 96.0297 133.63C181.616 130.836 270.116 127.944 353.283 104.568C394.956 92.8557 438.361 89.1598 479.057 86.91C537.375 83.6857 595.52 84.9363 651.881 90.6258C719.658 97.467 776.788 109.8 826.536 128.325C834.633 131.34 842.951 133.944 850.996 136.461C861.556 139.766 872.476 143.184 883.035 147.577C901.958 155.515 922.151 159.949 942.641 160.665C986.859 162.354 1037.5 156.18 1085.25 143.286C1121.45 133.507 1157.59 130.348 1192.64 133.901C1223.09 136.987 1252.54 145.211 1280.1 153.371C1281.93 153.916 1283.77 154.462 1285.61 155.011C1308.8 161.921 1332.78 169.066 1357.21 169.395C1385.6 169.777 1412.46 159.226 1439.3 137.138L1439.57 137.472C1413.12 159.237 1386.65 169.835 1358.71 169.835Z" fill="url(#paint18_linear_105_361)"/>
<path d="M1358.51 167.491C1357.16 167.491 1355.81 167.468 1354.45 167.421C1329.51 166.55 1305.11 159.054 1281.51 151.805C1279.05 151.049 1276.59 150.296 1274.14 149.547C1247.11 141.327 1215.55 132.287 1183.12 129.072C1146.74 125.465 1109.21 128.958 1071.56 139.453C1042.46 147.566 1000.18 156.51 955.268 156.512C948.589 156.512 941.866 156.303 935.099 155.886C915.816 154.667 897.44 150.03 877.268 141.293C866.273 136.531 854.922 133.343 843.944 130.259C836.85 128.268 829.518 126.208 822.294 123.733C773.047 106.862 716.467 95.2731 649.319 88.3021C591.645 82.3128 533.615 80.5384 475.686 82.9927C435.837 84.7003 389.788 87.5962 347.573 100.407C265.251 125.389 177.116 128.774 91.8826 132.049C63.2528 133.148 33.6522 134.284 4.92505 136.234L4.89685 135.804C33.6292 133.855 63.2345 132.718 91.8655 131.618C177.071 128.346 265.18 124.962 347.449 99.9961C389.71 87.1706 435.793 84.2725 475.667 82.5636C533.618 80.1087 591.669 81.8837 649.364 87.8748C716.545 94.8484 773.156 106.445 822.433 123.326C829.646 125.797 836.974 127.855 844.06 129.845C855.052 132.933 866.417 136.125 877.438 140.898C897.565 149.615 915.896 154.241 935.125 155.457C987.286 158.755 1038.05 148.35 1071.44 139.039C1109.14 128.531 1146.73 125.032 1183.16 128.644C1215.63 131.863 1247.21 140.909 1274.26 149.135C1276.71 149.882 1279.17 150.635 1281.64 151.394C1305.21 158.634 1329.58 166.122 1354.46 166.991C1383.97 168.022 1411.72 157.803 1439.28 135.751L1439.55 136.088C1413.18 157.192 1386.62 167.49 1358.51 167.491Z" fill="url(#paint19_linear_105_361)"/>
<path d="M1358.75 165.372C1356.48 165.372 1354.21 165.307 1351.92 165.177C1326.53 163.732 1301.75 155.875 1277.78 148.276C1274.76 147.319 1271.75 146.368 1268.74 145.422C1239.01 136.122 1206.99 127.076 1174.28 123.879C1136.6 120.197 1097.68 124.014 1058.6 135.225C1011.33 148.789 966.207 154.15 928.111 150.729C910.4 149.139 893.054 144.195 871.867 134.703C860.672 129.685 849.7 127.015 838.086 124.188C831.564 122.601 824.819 120.958 818.094 118.87C768.398 103.436 713.873 92.9241 646.494 85.7811C587.153 79.4915 528.373 77.1996 471.784 78.9756C426.416 80.3986 382.28 82.7902 341.056 96.2542C259.867 122.771 172.337 126.606 87.689 130.315C60.2933 131.514 31.9627 132.758 4.50074 134.757L4.46997 134.327C31.9387 132.326 60.2711 131.084 87.6706 129.884C172.289 126.176 259.788 122.343 340.924 95.8432C382.202 82.3624 426.371 79.9678 471.77 78.5439C528.378 76.7688 587.179 79.0598 646.538 85.3529C713.944 92.4989 768.498 103.019 818.22 118.459C824.931 120.543 831.67 122.183 838.186 123.769C849.308 126.477 860.808 129.275 872.041 134.309C893.182 143.782 910.486 148.714 928.147 150.301C966.189 153.718 1011.26 148.362 1058.48 134.812C1097.61 123.586 1136.58 119.765 1174.32 123.451C1207.07 126.652 1239.11 135.704 1268.87 145.012C1271.87 145.953 1274.89 146.905 1277.91 147.866C1301.85 155.457 1326.61 163.307 1351.94 164.748C1382.45 166.483 1411.02 156.616 1439.26 134.58L1439.52 134.919C1413.31 155.371 1386.82 165.372 1358.75 165.372Z" fill="url(#paint20_linear_105_361)"/>
<path d="M1358.99 163.386C1355.9 163.386 1352.8 163.266 1349.69 163.026C1324.01 161.042 1298.99 152.828 1274.8 144.884C1271.23 143.713 1267.54 142.502 1263.92 141.334C1233.54 131.54 1200.68 122.014 1166.28 118.672C1127.38 114.896 1087.17 119.02 1046.74 130.933C1010.44 141.629 977.183 147.008 947.506 147.009C938.93 147.026 930.36 146.544 921.84 145.562C902.808 143.33 886.063 136.993 866.774 128.163C860.222 125.164 853.205 122.067 845.804 120.055C840.565 118.63 835.182 117.866 829.976 117.128C824.669 116.375 819.182 115.596 813.832 114.118C764.039 100.356 709.901 90.6163 643.456 83.4656C582.177 76.8711 522.986 74.1098 467.522 75.2585C418.597 76.2718 374.784 78.2679 334.045 92.489C254.051 120.413 167.267 124.675 83.3399 128.795C57.2313 130.076 30.2291 131.402 4.06794 133.429L4.03503 132.999C30.2026 130.971 57.2052 129.645 83.319 128.364C167.216 124.245 253.969 119.986 333.906 92.0793C374.704 77.838 418.553 75.8398 467.515 74.8256C522.997 73.6765 582.204 76.4382 643.503 83.0369C709.971 90.1903 764.133 99.9325 813.947 113.703C819.27 115.174 824.743 115.951 830.037 116.702C835.256 117.442 840.652 118.206 845.917 119.639C853.349 121.66 860.384 124.765 866.952 127.771C886.204 136.585 902.915 142.91 921.891 145.135C957.552 149.316 999.514 144.401 1046.62 130.521C1087.1 118.591 1127.37 114.461 1166.32 118.244C1200.76 121.592 1233.64 131.124 1264.05 140.926C1267.67 142.092 1271.36 143.304 1274.93 144.476C1299.1 152.411 1324.09 160.616 1349.72 162.597C1365.76 163.857 1381.88 161.828 1397.12 156.633C1411.34 151.8 1425.51 144.036 1439.24 133.558L1439.5 133.902C1425.73 144.408 1411.51 152.194 1397.25 157.041C1384.93 161.244 1372 163.387 1358.99 163.386Z" fill="url(#paint21_linear_105_361)"/>
<path d="M1359.85 161.49C1355.86 161.49 1351.85 161.293 1347.83 160.901C1321.96 158.375 1296.81 149.801 1272.49 141.512C1268.33 140.093 1264.02 138.626 1259.8 137.219C1230.34 127.402 1195.36 116.893 1159.31 113.383C1119.31 109.489 1077.9 113.905 1036.21 126.507C1014.56 133.05 995.203 137.431 977.038 139.897C955.263 142.853 934.888 143 916.476 140.333C896.372 137.42 878.167 129.038 862.107 121.643C855.569 118.634 848.493 115.605 841.068 113.843C835.869 112.609 830.556 112.135 825.421 111.676C820.22 111.211 814.842 110.73 809.565 109.462C759.777 97.5018 704.417 88.3021 640.319 81.3362C575.876 74.3338 517.895 71.2204 463.064 71.8197C421.854 72.2698 370.566 72.8296 326.752 89.0854C247.986 118.308 162.043 122.95 78.9288 127.44C54.1286 128.78 28.4836 130.165 3.63685 132.19L3.60266 131.76C28.4559 129.734 54.1034 128.349 78.9066 127.009C161.989 122.521 247.9 117.88 326.605 88.6804C370.49 72.3988 421.819 71.8386 463.062 71.3881C517.907 70.7888 575.908 73.903 640.368 80.9072C704.484 87.8743 759.862 97.0779 809.668 109.043C814.915 110.303 820.277 110.782 825.463 111.246C830.614 111.706 835.941 112.182 841.171 113.423C848.632 115.193 855.73 118.232 862.289 121.251C878.323 128.633 896.498 137.001 916.541 139.905C950.13 144.773 989.236 140.254 1036.09 126.093C1077.83 113.476 1119.31 109.054 1159.35 112.953C1195.45 116.467 1230.46 126.985 1259.94 136.809C1264.16 138.217 1268.47 139.684 1272.63 141.103C1296.93 149.387 1322.06 157.952 1347.87 160.473C1364.13 162.101 1380.55 160.385 1396.13 155.429C1410.73 150.783 1425.23 143.111 1439.23 132.626L1439.49 132.97C1425.45 143.483 1410.9 151.176 1396.26 155.837C1384.48 159.591 1372.2 161.497 1359.85 161.49Z" fill="url(#paint22_linear_105_361)"/>
<path d="M1361.15 159.61C1356.22 159.608 1351.29 159.315 1346.4 158.733C1320.47 155.663 1295.31 146.725 1270.97 138.081C1266.23 136.397 1261.33 134.655 1256.52 132.993C1226.63 122.665 1191.03 111.61 1153.55 107.924C1112.6 103.897 1070.11 108.581 1027.27 121.853C995.481 131.7 953.677 142.09 912.198 134.971C894.647 131.958 879.377 124.934 863.211 117.499C861.469 116.698 859.723 115.896 857.971 115.095C851.815 112.286 844.461 109.205 836.6 107.65C831.417 106.625 826.169 106.452 821.094 106.285C815.941 106.113 810.613 105.941 805.338 104.874C753.58 94.4111 698.576 86.0666 637.182 79.3621C570.148 72.0424 514.06 68.6216 460.952 68.6216C460.152 68.6216 459.361 68.6216 458.563 68.6242C413.755 68.7101 362.969 68.809 319.373 86.0051C242.023 116.515 157.004 121.437 74.7848 126.197C51.2028 127.562 26.8184 128.974 3.20484 130.973L3.16895 130.544C26.7881 128.544 51.1755 127.133 74.7596 125.767C156.946 121.009 241.93 116.089 319.217 85.604C362.888 68.3787 413.716 68.2785 458.563 68.1925C459.358 68.1908 460.154 68.1899 460.952 68.1899C514.078 68.1899 570.175 71.6108 637.228 78.933C698.636 85.6396 753.653 93.9855 805.422 104.451C810.663 105.511 815.974 105.685 821.109 105.854C826.201 106.021 831.466 106.194 836.683 107.227C844.588 108.791 851.969 111.883 858.147 114.702C859.901 115.502 861.648 116.303 863.389 117.105C879.529 124.53 894.775 131.542 912.27 134.545C953.658 141.652 995.401 131.274 1027.14 121.441C1070.03 108.152 1112.58 103.458 1153.6 107.495C1191.11 111.185 1226.75 122.249 1256.66 132.585C1261.47 134.248 1266.37 135.99 1271.12 137.674C1295.43 146.311 1320.57 155.241 1346.45 158.304C1362.85 160.307 1379.49 158.912 1395.34 154.206C1410.24 149.761 1425 142.195 1439.2 131.718L1439.46 132.065C1425.21 142.571 1410.41 150.159 1395.46 154.618C1384.32 157.939 1372.77 159.621 1361.15 159.61Z" fill="url(#paint23_linear_105_361)"/>
<path d="M1362.93 157.683C1357.09 157.678 1351.26 157.268 1345.47 156.454C1319.61 152.837 1294.58 143.533 1270.37 134.536C1265.07 132.565 1259.59 130.528 1254.21 128.593C1225.78 118.369 1188.16 106.132 1149.21 102.227C1107.44 98.0392 1064.02 102.975 1020.16 116.901C987.12 127.391 948.1 137.08 909.193 129.424C893.417 126.319 879.584 119.963 864.938 113.234C861.524 111.665 857.994 110.043 854.479 108.487C848.625 105.895 840.836 102.754 832.478 101.456C827.267 100.647 822.052 100.787 817.007 100.923C811.859 101.061 806.534 101.203 801.204 100.339C743.965 91.0596 687.759 83.3839 634.147 77.5255C562.005 69.6422 506.501 65.9802 454.177 65.6505L453.792 65.6479C407.805 65.3586 355.682 65.031 312.118 83.2206C236.174 114.93 152.086 120.05 70.7654 125.002C48.3663 126.366 25.204 127.776 2.7826 129.727L2.74585 129.297C25.1728 127.346 48.3372 125.935 70.7398 124.571C152.024 119.621 236.077 114.503 311.956 82.8216C355.602 64.5985 407.77 64.9274 453.797 65.2163L454.181 65.2188C506.52 65.5486 562.038 69.2119 634.194 77.0964C687.814 82.9557 744.027 90.6322 801.272 99.9128C806.563 100.773 811.866 100.629 816.997 100.491C822.062 100.356 827.296 100.215 832.546 101.03C840.952 102.334 848.776 105.489 854.653 108.091C858.171 109.649 861.704 111.273 865.118 112.841C879.74 119.559 893.551 125.905 909.276 129C948.089 136.638 987.047 126.962 1020.03 116.49C1063.95 102.547 1107.43 97.6058 1149.26 101.798C1188.25 105.708 1225.9 117.954 1254.35 128.187C1259.74 130.121 1265.22 132.161 1270.52 134.132C1294.71 143.121 1319.72 152.416 1345.53 156.027C1362.4 158.384 1378.97 157.335 1394.81 152.903C1409.92 148.675 1424.85 141.229 1439.19 130.772L1439.44 131.12C1425.06 141.607 1410.09 149.076 1394.93 153.318C1384.51 156.227 1373.74 157.696 1362.93 157.683Z" fill="url(#paint24_linear_105_361)"/>
<path d="M1365.2 155.643C1358.47 155.636 1351.76 155.085 1345.12 153.997C1319.48 149.826 1294.73 140.159 1270.79 130.808C1264.95 128.53 1258.92 126.172 1252.99 123.944C1224.42 113.2 1186.49 100.338 1146.47 96.2146C1104.06 91.8424 1059.87 97.0091 1015.14 111.569C981.214 122.609 944.712 131.713 907.644 123.631C893.152 120.471 879.71 114.344 866.711 108.42C861.836 106.198 856.794 103.901 851.744 101.778C842.764 98.0044 835.681 95.9846 828.779 95.2306C823.489 94.6523 818.265 95.1132 813.212 95.5586C808.021 96.0169 802.654 96.4902 797.214 95.8372C777.747 93.4998 757.966 91.0325 738.836 88.646C703.619 84.2532 667.202 79.7112 631.32 75.8016C577.127 69.8971 513.211 63.7429 450.063 62.8707L448.831 62.8535C401.998 62.2056 348.919 61.4691 305.192 80.7004C230.585 113.514 147.379 118.742 66.9103 123.795C45.6444 125.13 23.655 126.511 2.37372 128.387L2.33655 127.957C23.623 126.081 45.6153 124.7 66.8834 123.364C147.314 118.312 230.483 113.089 305.021 80.3053C348.832 61.0358 401.96 61.7709 448.837 62.421L450.069 62.4382C513.236 63.3109 577.163 69.4659 631.366 75.3716C667.252 79.2817 703.67 83.8241 738.888 88.217C758.018 90.6034 777.799 93.0707 797.264 95.4081C802.66 96.053 808.005 95.584 813.174 95.1278C818.249 94.6803 823.494 94.2173 828.826 94.8002C835.77 95.5595 842.889 97.5886 851.908 101.378C856.964 103.503 862.009 105.801 866.887 108.025C879.866 113.94 893.287 120.056 907.735 123.207C944.703 131.267 981.139 122.178 1015.01 111.156C1059.8 96.5784 1104.05 91.4065 1146.52 95.7834C1186.58 99.9106 1224.54 112.783 1253.14 123.537C1259.07 125.766 1265.11 128.124 1270.94 130.403C1294.86 139.745 1319.59 149.406 1345.19 153.568C1362.11 156.32 1378.72 155.608 1394.56 151.452C1409.79 147.454 1424.79 140.145 1439.16 129.722L1439.41 130.071C1425 140.525 1409.95 147.858 1394.67 151.867C1385.05 154.386 1375.14 155.655 1365.2 155.643Z" fill="url(#paint25_linear_105_361)"/>
<path d="M1367.97 153.427C1360.4 153.414 1352.85 152.7 1345.41 151.293C1320.16 146.564 1295.85 136.536 1272.34 126.837C1266 124.222 1259.45 121.518 1253.01 118.974C1224.44 107.69 1186.4 94.1778 1145.53 89.8111C1102.67 85.233 1057.9 90.6048 1012.45 105.778C981.552 116.093 945.43 126.361 907.736 117.534C894.13 114.347 881.355 108.635 869.001 103.115C862.782 100.336 856.352 97.461 849.874 94.9327C840.571 91.3021 832.851 89.3993 825.578 88.9453C820.148 88.6052 814.852 89.4001 809.731 90.1667C804.458 90.9564 799.003 91.7754 793.417 91.3489C753.83 88.3434 713.71 83.7661 674.911 79.3393C659.8 77.6154 644.175 75.833 628.804 74.1679C570.262 67.8289 507.954 61.5337 446.379 60.2581L444.894 60.2276C397.07 59.2328 342.87 58.1085 298.797 78.4129C225.396 112.232 142.968 117.46 63.2542 122.515C43.0634 123.795 22.185 125.119 1.98139 126.893L1.94421 126.463C22.1534 124.689 43.0339 123.365 63.2273 122.084C142.903 117.033 225.291 111.808 298.62 78.0225C342.78 57.6765 397.036 58.8029 444.902 59.7977L446.387 59.8282C507.979 61.1042 570.298 67.4007 628.848 73.7406C644.221 75.4052 659.848 77.1881 674.959 78.9124C713.754 83.3405 753.871 87.9152 793.449 90.9203C798.99 91.3408 804.418 90.5278 809.668 89.7415C814.811 88.9711 820.131 88.1758 825.604 88.5162C832.923 88.9732 840.684 90.8846 850.029 94.5324C856.515 97.0638 862.951 99.9407 869.174 102.722C881.511 108.236 894.266 113.938 907.833 117.115C945.417 125.917 981.472 115.667 1012.31 105.37C1057.82 90.1774 1102.66 84.7984 1145.57 89.3838C1186.5 93.756 1224.57 107.28 1253.16 118.575C1259.61 121.12 1266.16 123.825 1272.5 126.442C1295.99 136.133 1320.27 146.154 1345.49 150.873C1362.36 154.031 1378.9 153.67 1394.63 149.799C1409.86 146.051 1424.83 138.89 1439.14 128.518L1439.39 128.866C1425.04 139.27 1410.01 146.456 1394.73 150.216C1385.97 152.363 1376.99 153.441 1367.97 153.427Z" fill="url(#paint26_linear_105_361)"/>
<path d="M1371.23 150.971C1362.88 150.95 1354.56 150.047 1346.41 148.275C1321.71 142.983 1298.02 132.599 1275.12 122.557C1268.33 119.577 1261.3 116.495 1254.39 113.611C1212.22 96.0186 1178.96 86.5593 1146.57 82.9403C1103.29 78.1059 1058.13 83.6604 1012.34 99.4489C980.787 110.33 946.865 120.191 909.655 111.072C896.615 107.878 884.21 102.52 872.212 97.3393C864.67 94.0823 856.872 90.7148 848.984 87.9122C839.087 84.3964 830.815 82.6999 822.953 82.574C817.308 82.4794 811.868 83.6234 806.606 84.7261C801.212 85.8564 795.634 87.0244 789.867 86.855C743.978 85.5025 697.501 80.3797 652.554 75.4258C644.079 74.4916 635.314 73.5256 626.702 72.6013L624.712 72.3863C565.337 66.0142 503.941 59.4245 443.28 57.7844L442.146 57.7534C393.214 56.4293 337.754 54.9272 293.14 76.3256C220.754 111.047 138.95 116.157 59.84 121.099C40.6538 122.298 20.8126 123.537 1.61225 125.183L1.57593 124.754C20.7814 123.105 40.6239 121.865 59.8136 120.667C138.883 115.728 220.644 110.62 292.956 75.9344C337.663 54.4895 393.178 55.9925 442.157 57.3192L443.291 57.3497C503.969 58.9907 565.374 65.5813 624.758 71.9543L626.747 72.1692C635.361 73.0935 644.125 74.0609 652.599 74.9938C697.538 79.9468 744.006 85.0683 789.878 86.4204C795.591 86.5945 801.148 85.426 806.517 84.3009C811.802 83.1926 817.274 82.0452 822.958 82.1393C830.869 82.2662 839.183 83.9703 849.125 87.5021C857.026 90.3094 864.831 93.6799 872.38 96.9395C884.361 102.113 896.75 107.464 909.755 110.65C946.853 119.741 980.706 109.898 1012.2 99.0375C1058.05 83.2292 1103.27 77.6674 1146.61 82.5095C1179.05 86.1328 1212.34 95.602 1254.55 113.211C1261.47 116.097 1268.5 119.179 1275.29 122.159C1298.18 132.193 1321.84 142.568 1346.5 147.851C1363.2 151.432 1379.54 151.432 1395.06 147.855C1410.16 144.373 1424.99 137.378 1439.12 127.07L1439.37 127.418C1425.19 137.76 1410.31 144.777 1395.15 148.274C1387.3 150.076 1379.28 150.981 1371.23 150.971Z" fill="url(#paint27_linear_105_361)"/>
<path d="M1374.98 148.21C1365.95 148.179 1356.95 147.059 1348.18 144.876C1324.22 139.01 1301.35 128.281 1279.24 117.908C1272.04 114.53 1264.59 111.037 1257.26 107.785C1216.19 89.5772 1182.04 79.3268 1149.78 75.526C1106.51 70.4276 1061.19 76.1386 1015.07 92.4993C982.789 103.948 950.741 113.456 913.583 104.186C900.902 101.022 888.685 96.0031 876.87 91.1498C867.89 87.4616 858.604 83.647 849.18 80.6746C838.646 77.3509 829.414 75.8493 820.977 76.084C815.028 76.2491 809.351 77.7607 803.86 79.2181C798.315 80.6914 792.582 82.215 786.613 82.3323C738.348 83.2782 689.345 77.9902 641.954 72.8807C636.336 72.2751 630.724 71.6732 625.118 71.0751C618.505 70.3735 611.892 69.667 605.277 68.9556C551.491 63.1905 495.874 57.2289 440.924 55.4228L440.799 55.4185C390.655 53.7703 333.816 51.9019 288.425 74.4108C216.797 109.93 135.408 114.79 56.6989 119.49C38.4344 120.581 19.5491 121.709 1.27002 123.208L1.23499 122.778C19.5191 121.278 38.4071 120.15 56.6733 119.06C135.341 114.362 216.685 109.505 288.235 74.0234C333.723 51.4668 390.616 53.3382 440.814 54.9869L440.939 54.9912C495.903 56.7968 551.529 62.7606 605.323 68.5266C611.937 69.2356 618.55 69.9421 625.163 70.646C630.768 71.2405 636.38 71.8423 641.999 72.4517C689.377 77.5612 738.364 82.8487 786.604 81.9007C792.522 81.7846 798.23 80.267 803.75 78.8006C809.271 77.3342 814.966 75.8192 820.965 75.6524C829.464 75.4189 838.73 76.9245 849.309 80.2627C858.75 83.2408 868.044 87.0584 877.032 90.7505C888.833 95.5977 901.036 100.61 913.687 103.767C950.73 113.01 982.712 103.519 1014.92 92.0922C1061.11 75.7096 1106.5 69.9917 1149.83 75.0974C1182.14 78.9034 1216.33 89.1645 1257.43 107.39C1264.77 110.644 1272.22 114.139 1279.42 117.516C1301.52 127.882 1324.37 138.601 1348.28 144.456C1364.69 148.472 1380.69 148.848 1395.86 145.578C1410.71 142.375 1425.26 135.566 1439.11 125.339L1439.36 125.685C1425.47 135.948 1410.86 142.783 1395.95 145.998C1389.06 147.478 1382.03 148.22 1374.98 148.21Z" fill="url(#paint28_linear_105_361)"/>
<path d="M1379.21 145.083C1369.6 145.035 1360.04 143.67 1350.8 141.026C1327.78 134.58 1305.93 123.526 1284.79 112.836C1277.25 109.021 1269.45 105.076 1261.75 101.421C1221.53 82.3328 1187.73 71.5501 1155.36 67.4931C1112.36 62.102 1067.11 67.9428 1020.87 84.8521C1018.71 85.6414 1016.57 86.4324 1014.44 87.2252C996.56 93.8519 979.674 100.111 960.327 101.08C947.423 101.728 933.753 100.292 919.704 96.817C907.172 93.7169 894.958 89.0205 883.146 84.4785C872.589 80.4192 861.672 76.2242 850.577 73.1842C839.079 70.0364 828.987 68.8142 819.725 69.4509C813.363 69.8872 807.347 71.7922 801.529 73.6344C795.807 75.446 789.89 77.3196 783.701 77.7637C734.729 81.2726 684.686 75.9744 636.291 70.849C632.238 70.419 628.193 69.9921 624.155 69.5683C612.852 68.3851 601.358 67.1414 590.242 65.9381C540.902 60.5977 489.882 55.0755 439.47 53.146C391.279 51.3009 331.302 49.0056 284.854 72.6322C213.676 108.838 132.441 113.302 53.8807 117.617C36.4439 118.575 18.414 119.566 0.957952 120.894L0.925903 120.464C18.3854 119.135 36.4187 118.145 53.8572 117.187C132.373 112.873 213.563 108.413 284.662 72.2475C331.208 48.5731 391.245 50.8709 439.486 52.717C489.913 54.6473 540.94 60.1704 590.287 65.5116C601.402 66.7154 612.896 67.9587 624.199 69.1418C628.239 69.5645 632.285 69.9914 636.337 70.4225C684.714 75.5453 734.737 80.8427 783.674 77.3355C789.813 76.8952 795.706 75.0294 801.404 73.2251C807.245 71.3765 813.286 69.4629 819.699 69.0227C829.009 68.3817 839.145 69.6095 850.69 72.7702C861.806 75.8145 872.733 80.0151 883.3 84.0769C895.099 88.6138 907.301 93.305 919.807 96.3987C933.816 99.8637 947.444 101.291 960.307 100.65C979.589 99.6836 996.445 93.4357 1014.29 86.8206C1016.42 86.0305 1018.57 85.2394 1020.72 84.4475C1067.03 67.515 1112.34 61.6656 1155.42 67.0657C1187.83 71.1284 1221.67 81.9214 1261.93 101.031C1269.64 104.689 1277.44 108.634 1284.99 112.451C1306.1 123.131 1327.94 134.176 1350.92 140.61C1366.87 145.077 1382.4 145.844 1397.09 142.892C1411.54 139.987 1425.67 133.378 1439.09 123.251L1439.34 123.594C1425.87 133.761 1411.68 140.395 1397.17 143.313C1391.26 144.497 1385.24 145.09 1379.21 145.083Z" fill="url(#paint29_linear_105_361)"/>
<path d="M1383.89 141.524C1374.3 141.524 1364.41 139.9 1354.33 136.659C1332.47 129.624 1311.84 118.27 1291.89 107.291C1284.08 102.992 1276 98.546 1268 94.4486C1228.95 74.4435 1195.75 63.105 1163.5 58.7658C1121.04 53.048 1076.13 58.9941 1030 76.4275C1027.46 77.3876 1024.94 78.3512 1022.45 79.3182C1005.22 85.9634 988.94 92.2405 970.07 93.2293C956.949 93.915 943.256 92.5032 928.204 88.9061C915.623 85.8993 903.237 81.5147 891.259 77.2749C878.949 72.9173 866.218 68.4118 853.284 65.4054C840.652 62.47 829.531 61.568 819.281 62.6484C812.362 63.3792 805.884 65.7154 799.619 67.9767C793.712 70.1087 787.605 72.3128 781.192 73.1301C732.428 79.3457 682.044 74.1043 633.32 69.0356C630.18 68.7089 627.046 68.3837 623.919 68.0601C608.86 66.5081 593.551 64.822 578.747 63.1914C533.042 58.158 485.781 52.953 439.075 50.9298C411.91 49.7527 385.362 48.8792 359.203 51.0902C328.523 53.6826 303.477 60.1828 282.637 70.962C211.533 107.741 130.137 111.645 51.4199 115.421C34.7048 116.223 17.421 117.052 0.684086 118.19L0.655029 117.76C17.3962 116.622 34.6821 115.793 51.3993 114.991C130.07 111.217 211.42 107.315 282.441 70.5807C303.332 59.7749 328.429 53.2595 359.167 50.662C385.35 48.4497 411.914 49.3233 439.093 50.5004C485.813 52.5244 533.08 57.7302 578.792 62.7645C593.596 64.3951 608.904 66.0808 623.962 67.6332C627.089 67.9557 630.223 68.2807 633.363 68.6083C682.062 73.6748 732.419 78.9141 781.138 72.704C787.505 71.8928 793.589 69.6946 799.474 67.5726C805.763 65.3027 812.265 62.9558 819.236 62.2211C829.531 61.1351 840.7 62.0405 853.378 64.9867C866.337 67.9986 879.077 72.5101 891.398 76.8699C903.366 81.1058 915.741 85.4866 928.301 88.4883C943.312 92.0754 956.966 93.486 970.045 92.8007C988.847 91.8145 1005.1 85.5498 1022.3 78.9171C1024.79 77.9547 1027.31 76.991 1029.85 76.026C1076.04 58.5664 1121.03 52.616 1163.56 58.3402C1195.85 62.6862 1229.1 74.0389 1268.19 94.0659C1276.2 98.1656 1284.28 102.613 1292.09 106.914C1312.03 117.884 1332.64 129.226 1354.46 136.249C1369.8 141.183 1384.7 142.354 1398.76 139.735C1412.65 137.146 1426.21 130.757 1439.07 120.747L1439.33 121.087C1426.42 131.139 1412.8 137.556 1398.84 140.159C1393.91 141.073 1388.9 141.53 1383.89 141.524Z" fill="url(#paint30_linear_105_361)"/>
<path d="M1388.99 137.472C1379.26 137.472 1369.17 135.544 1358.85 131.704C1338.36 124.076 1319.17 112.461 1300.62 101.228C1292.62 96.3883 1284.35 91.3833 1276.14 86.7957C1238.6 65.8426 1206.27 53.9177 1174.39 49.2669C1132.78 43.1961 1088.47 49.2119 1042.7 67.1448C1039.98 68.2131 1037.26 69.3055 1034.62 70.3623C1017.69 77.1549 1001.7 83.5692 982.939 84.6401C969.624 85.4015 955.338 84.0103 939.264 80.3921C926.483 77.5152 913.796 73.4447 901.529 69.508C887.219 64.9161 872.423 60.1682 857.408 57.2951C843.415 54.6172 831.083 54.0776 819.713 55.6442C812.037 56.7014 804.938 59.5268 798.072 62.2584C792.005 64.6728 785.733 67.1689 779.126 68.4096C731.156 77.4163 680.789 72.2711 632.08 67.2944C629.549 67.0365 627.025 66.7792 624.508 66.5227C606.399 64.6874 588 62.6144 570.206 60.6097C527.566 55.8059 483.474 50.8382 439.89 48.7441C414.019 47.5004 386.479 46.4875 359.217 48.8929C328.476 51.6052 303.208 58.3024 281.971 69.3675C210.512 106.598 128.587 109.768 49.3585 112.832C33.2446 113.455 16.5838 114.099 0.445621 115.029L0.421265 114.599C16.5633 113.67 33.2271 113.025 49.3423 112.402C128.523 109.338 210.4 106.168 281.774 68.9835C303.062 57.8918 328.382 51.18 359.18 48.4621C386.468 46.0546 414.024 47.0679 439.91 48.3129C483.508 50.4088 527.607 55.3768 570.254 60.1815C588.046 62.1862 606.444 64.2592 624.55 66.0945C627.068 66.3499 629.592 66.6071 632.123 66.8662C680.802 71.8382 731.137 76.9799 779.048 67.984C785.615 66.751 791.867 64.2622 797.916 61.856C804.804 59.1145 811.928 56.2796 819.654 55.2152C831.074 53.6426 843.449 54.1834 857.489 56.8699C872.53 59.7477 887.337 64.4996 901.659 69.0953C913.918 73.029 926.595 77.0968 939.357 79.9695C955.393 83.5808 969.642 84.966 982.914 84.208C1001.61 83.1406 1017.57 76.7383 1034.46 69.9599C1037.1 68.9027 1039.82 67.8103 1042.55 66.7416C1088.39 48.7807 1132.76 42.7563 1174.45 48.8379C1206.39 53.4968 1238.76 65.4376 1276.34 86.4165C1284.57 91.0075 1292.84 96.0151 1300.84 100.857C1319.37 112.078 1338.54 123.685 1359 131.298C1373.55 136.715 1387.65 138.306 1400.91 136.036C1414.08 133.78 1426.91 127.63 1439.06 117.757L1439.32 118.091C1427.12 128.011 1414.22 134.191 1400.99 136.46C1397.02 137.136 1393.01 137.475 1388.99 137.472Z" fill="url(#paint31_linear_105_361)"/>
<path d="M1394.49 132.887C1384.85 132.887 1374.85 130.619 1364.42 126.094C1345.53 117.91 1328.02 106.078 1311.08 94.6352C1303 89.1753 1294.64 83.5284 1286.29 78.387C1250.65 56.4542 1219.49 43.9132 1188.22 38.9211C1147.77 32.4621 1104.37 38.5187 1059.24 56.925C1056.49 58.0457 1053.75 59.1897 1051.1 60.2963C1034.16 67.3688 1018.16 74.0488 999.159 75.2414C985.419 76.1012 970.342 74.7882 953.07 71.2161C939.925 68.4986 926.794 64.7395 914.096 61.1033C897.53 56.3605 880.401 51.4561 863.066 48.8172C847.494 46.4476 833.768 46.3152 821.1 48.4123C812.383 49.8563 804.432 53.2557 796.743 56.5432C790.603 59.1691 784.255 61.884 777.557 63.5826C730.833 75.4366 680.68 70.4096 632.178 65.5499L626.028 64.9347C605.45 62.8861 584.555 60.4674 564.347 58.1292C524.343 53.499 482.976 48.7115 442.076 46.5598C415.882 45.1841 387.907 44.255 360.812 46.7919C330.217 49.6556 304.786 56.532 283.064 67.8146C210.763 105.368 127.89 107.616 47.7446 109.79C32.1034 110.214 15.9259 110.653 0.256412 111.357L0.237183 110.927C15.9118 110.222 32.091 109.784 47.7378 109.359C127.834 107.187 210.658 104.941 282.871 67.4316C304.642 56.1249 330.125 49.2325 360.776 46.3659C387.899 43.8294 415.891 44.7541 442.101 46.1329C483.015 48.285 524.389 53.0734 564.398 57.7044C584.604 60.0427 605.497 62.4605 626.072 64.5095L632.222 65.1238C680.688 69.9818 730.803 75.0023 777.455 63.1686C784.121 61.4773 790.452 58.7689 796.577 56.1494C804.287 52.852 812.259 49.4428 821.03 47.9905C833.742 45.884 847.513 46.0172 863.129 48.3942C880.491 51.0373 897.634 55.9456 914.212 60.6919C926.903 64.3255 940.026 68.0829 953.155 70.7974C970.39 74.3609 985.428 75.6752 999.131 74.8145C1018.06 73.6262 1034.03 66.9595 1050.93 59.9012C1053.58 58.7947 1056.33 57.6502 1059.08 56.529C1104.29 38.0927 1147.76 32.0279 1188.28 38.4985C1219.61 43.5014 1250.82 56.0613 1286.51 78.0238C1294.87 83.1702 1303.23 88.8193 1311.32 94.2822C1328.24 105.714 1345.74 117.535 1364.58 125.704C1391.97 137.571 1416.32 133.819 1439.04 114.229L1439.32 114.556C1425.12 126.794 1410.29 132.887 1394.49 132.887Z" fill="url(#paint32_linear_105_361)"/>
<path d="M1400.32 127.624C1391 127.624 1381.29 125.002 1371.1 119.767C1354.07 111.018 1338.45 99.0503 1323.35 87.4767C1315.3 81.3104 1306.99 74.9335 1298.59 69.1577C1265.7 46.5284 1235.14 32.9526 1205.18 27.6539C1166.42 20.8029 1124.25 26.8706 1079.84 45.6901C1077.15 46.8302 1074.48 47.9888 1071.89 49.1096C1054.71 56.5471 1038.48 63.5718 1018.95 64.966C1004.44 66.0034 988.817 64.8448 969.805 61.3221C956.146 58.7903 942.433 55.3463 929.173 52.0123C910.059 47.2094 890.296 42.2434 870.365 39.9357C853.01 37.9267 837.687 38.2513 823.52 40.9245C813.287 42.8591 804.099 47.0034 795.214 51.0128C789.232 53.7131 783.043 56.5054 776.541 58.6304C731.438 73.3725 679.371 68.2604 633.435 63.7464L628.589 63.2735C606.022 61.0684 583.123 58.3363 560.975 55.6945C523.295 51.1998 484.331 46.5516 445.796 44.3547C421.324 42.9592 392.488 41.9189 364.174 44.7726C333.959 47.8194 308.432 54.8532 286.127 66.276C212.439 104.016 128.147 105.142 46.6289 106.232C31.3064 106.437 15.4622 106.649 0.113649 107.112L0.10083 106.682C15.4528 106.219 31.2987 106.007 46.6229 105.802C128.092 104.714 212.334 103.588 285.933 65.8938C308.284 54.4461 333.863 47.3981 364.131 44.3466C392.475 41.4894 421.33 42.5311 445.82 43.9274C484.368 46.1247 523.338 50.7733 561.025 55.2694C583.169 57.9107 606.067 60.6433 628.63 62.8466L633.476 63.322C679.373 67.8297 731.393 72.9388 776.411 58.2246C782.891 56.1068 789.068 53.3188 795.042 50.6237C803.95 46.6036 813.16 42.4472 823.443 40.5053C837.652 37.8205 853.017 37.4959 870.417 39.5092C890.372 41.8204 910.152 46.7902 929.278 51.5966C942.533 54.9271 956.239 58.3707 969.885 60.8995C988.86 64.4157 1004.44 65.5713 1018.92 64.5378C1038.38 63.1492 1054.57 56.1382 1071.72 48.7171C1074.31 47.5959 1076.99 46.4385 1079.68 45.2958C1124.17 26.4442 1166.42 20.3674 1205.25 27.2331C1235.28 32.542 1265.89 46.1406 1298.83 68.8056C1307.24 74.5875 1315.56 80.9674 1323.61 87.1379C1338.7 98.6995 1354.3 110.654 1371.3 119.386C1396.37 132.264 1418.52 129.224 1439.03 110.09L1439.32 110.406C1427 121.896 1414.09 127.624 1400.32 127.624Z" fill="url(#paint33_linear_105_361)"/>
<path d="M1406.45 121.69C1397.8 121.69 1388.73 118.714 1379.17 112.771C1364.24 103.49 1350.73 91.4977 1337.68 79.8991C1329.91 73.002 1321.88 65.8697 1313.67 59.4189C1283.58 35.7853 1255.06 21.4503 1226.48 15.5945C1206.51 11.5017 1185.19 11.3384 1163.12 15.104C1143.47 18.4573 1123.04 24.9455 1102.41 34.3894L1100 35.493C1081.69 43.8896 1064.39 51.8198 1043.5 53.6594C1027.81 55.0398 1010.49 54.0463 988.983 50.5317C974.882 48.2274 960.674 45.148 946.931 42.17C925.446 37.5136 903.23 32.6986 880.93 30.7386C860.822 28.9708 843.156 29.7666 826.918 33.1723C814.498 35.778 803.914 40.7852 792.708 46.0873C786.82 48.8736 780.731 51.7544 774.402 54.2213C731.375 70.9939 680.408 66.1165 635.441 61.8139L632.917 61.5728C608.57 59.2465 583.884 56.2066 560.011 53.2664C524.833 48.9338 488.458 44.4532 452.475 42.1747C398.611 38.7629 341.962 39.0557 292.597 64.0804C216.764 102.524 130.028 102.308 46.1472 102.101C30.9521 102.062 15.2387 102.024 0.0272835 102.23L0.0217285 101.8C15.2361 101.593 30.9508 101.632 46.1485 101.671C129.969 101.876 216.662 102.094 292.407 63.6965C341.861 38.6258 398.58 38.3317 452.503 41.7456C488.499 44.0242 524.881 48.506 560.065 52.8374C583.935 55.7771 608.618 58.817 632.96 61.142L635.483 61.3836C680.404 65.6827 731.317 70.5536 774.25 53.8171C780.565 51.3555 786.647 48.4776 792.529 45.6948C803.264 40.6154 814.365 35.364 826.834 32.7484C843.114 29.3341 860.82 28.5353 880.969 30.307C903.296 32.2695 925.526 37.0871 947.023 41.7456C960.76 44.7228 974.965 47.8009 989.054 50.1044C1010.52 53.6134 1027.81 54.606 1043.46 53.2277C1064.28 51.3946 1081.55 43.4786 1099.83 35.0988L1102.24 33.9947C1122.9 24.5367 1143.36 18.036 1163.05 14.6766C1185.17 10.9011 1206.54 11.0654 1226.57 15.1697C1255.22 21.0393 1283.79 35.401 1313.93 59.0763C1322.16 65.5353 1330.19 72.6722 1337.96 79.5732C1351.01 91.1602 1364.49 103.141 1379.4 112.403C1401.6 126.198 1421.1 123.867 1439.02 105.275L1439.33 105.574C1428.96 116.328 1418.07 121.69 1406.45 121.69Z" fill="url(#paint34_linear_105_361)"/>
<path d="M1411.93 115.088C1404.04 115.088 1395.73 111.767 1386.91 105.131C1374.11 95.4943 1362.64 83.7255 1351.56 72.3435C1344.03 64.6167 1336.25 56.6268 1328.14 49.3974C1300.74 24.9879 1274.17 10.1082 1246.92 3.90668C1210.96 -4.27498 1171.03 1.99959 1128.25 22.5563C1109.81 31.415 1090.74 40.5752 1067.46 42.8236C1050.62 44.4491 1032.56 43.6748 1008.89 40.3112C993.993 38.1935 978.946 35.3556 964.395 32.6115C940.326 28.072 915.438 23.3783 890.541 21.8164C868.39 20.4261 848.917 21.6689 831.011 25.6164C815.129 29.1167 801.723 35.7322 787.53 42.7363C783.355 44.7969 779.036 46.928 774.653 48.9701C733.536 68.1442 683.117 63.5011 638.634 59.4045L637.361 59.2875C611.989 56.9518 586.28 53.7331 561.418 50.6201C528.037 46.4405 493.519 42.1186 459.369 39.8796C372.07 34.1557 329.898 48.0793 300.162 62.4538C222.135 100.173 133.644 98.6684 48.0672 97.2114C32.2281 96.9457 15.8532 96.6654 0 96.6598V96.2299C15.8532 96.2355 32.2341 96.5145 48.0723 96.784C133.6 98.2397 222.037 99.744 299.974 62.0682C353.054 36.4098 410.351 36.2387 459.395 39.4548C493.558 41.6947 528.082 46.0174 561.469 50.1979C586.328 53.3105 612.032 56.5288 637.398 58.8636L638.67 58.9806C683.102 63.0725 733.459 67.7108 774.469 48.584C778.849 46.5419 783.164 44.4139 787.338 42.3503C801.555 35.3346 814.983 28.7079 830.915 25.1968C848.862 21.2416 868.372 19.9949 890.564 21.3878C915.487 22.9514 940.388 27.6473 964.47 32.1893C979.016 34.9326 994.058 37.7691 1008.95 39.8847C1032.58 43.2441 1050.61 44.0179 1067.42 42.3954C1090.62 40.1539 1109.65 31.0109 1128.06 22.1681C1170.93 1.56882 1210.95 -4.71564 1247.01 3.48752C1274.33 9.70491 1300.96 24.6173 1328.42 49.0758C1336.54 56.3147 1344.33 64.3106 1351.86 72.043C1362.93 83.4125 1374.39 95.1697 1387.16 104.786C1396.92 112.13 1405.8 115.333 1414.32 114.591C1423.02 113.829 1431.09 108.97 1439 99.7358L1439.33 100.016C1430.72 110.069 1421.64 115.088 1411.93 115.088Z" fill="url(#paint35_linear_105_361)"/>
<defs>
<linearGradient id="paint0_linear_105_361" x1="9.20459" y1="245.883" x2="1440" y2="245.883" gradientUnits="userSpaceOnUse">
<stop stop-color="#FB6A33"/>
<stop offset="1" stop-color="#7AB694"/>
</linearGradient>
<linearGradient id="paint1_linear_105_361" x1="8.91284" y1="238.667" x2="1439.93" y2="238.667" gradientUnits="userSpaceOnUse">
<stop stop-color="#FB6A33"/>
<stop offset="1" stop-color="#7AB694"/>
</linearGradient>
<linearGradient id="paint2_linear_105_361" x1="8.64526" y1="231.719" x2="1439.88" y2="231.719" gradientUnits="userSpaceOnUse">
<stop stop-color="#FB6A33"/>
<stop offset="1" stop-color="#7AB694"/>
</linearGradient>
<linearGradient id="paint3_linear_105_361" x1="8.40985" y1="224.414" x2="1439.83" y2="224.414" gradientUnits="userSpaceOnUse">
<stop stop-color="#FB6A33"/>
<stop offset="1" stop-color="#7AB694"/>
</linearGradient>
<linearGradient id="paint4_linear_105_361" x1="8.2146" y1="216.919" x2="1439.79" y2="216.919" gradientUnits="userSpaceOnUse">
<stop stop-color="#FB6A33"/>
<stop offset="1" stop-color="#7AB694"/>
</linearGradient>
<linearGradient id="paint5_linear_105_361" x1="8.06836" y1="209.178" x2="1439.76" y2="209.178" gradientUnits="userSpaceOnUse">
<stop stop-color="#FB6A33"/>
<stop offset="1" stop-color="#7AB694"/>
</linearGradient>
<linearGradient id="paint6_linear_105_361" x1="7.97913" y1="201.105" x2="1439.74" y2="201.105" gradientUnits="userSpaceOnUse">
<stop stop-color="#FB6A33"/>
<stop offset="1" stop-color="#7AB694"/>
</linearGradient>
<linearGradient id="paint7_linear_105_361" x1="7.95349" y1="192.665" x2="1439.73" y2="192.665" gradientUnits="userSpaceOnUse">
<stop stop-color="#FB6A33"/>
<stop offset="1" stop-color="#7AB694"/>
</linearGradient>
<linearGradient id="paint8_linear_105_361" x1="7.94873" y1="184.104" x2="1439.73" y2="184.104" gradientUnits="userSpaceOnUse">
<stop stop-color="#FB6A33"/>
<stop offset="1" stop-color="#7AB694"/>
</linearGradient>
<linearGradient id="paint9_linear_105_361" x1="7.88257" y1="176.051" x2="1439.73" y2="176.051" gradientUnits="userSpaceOnUse">
<stop stop-color="#FB6A33"/>
<stop offset="1" stop-color="#7AB694"/>
</linearGradient>
<linearGradient id="paint10_linear_105_361" x1="7.76111" y1="168.501" x2="1439.72" y2="168.501" gradientUnits="userSpaceOnUse">
<stop stop-color="#FB6A33"/>
<stop offset="1" stop-color="#7AB694"/>
</linearGradient>
<linearGradient id="paint11_linear_105_361" x1="7.58771" y1="161.422" x2="1439.71" y2="161.422" gradientUnits="userSpaceOnUse">
<stop stop-color="#FB6A33"/>
<stop offset="1" stop-color="#7AB694"/>
</linearGradient>
<linearGradient id="paint12_linear_105_361" x1="7.36762" y1="154.814" x2="1439.7" y2="154.814" gradientUnits="userSpaceOnUse">
<stop stop-color="#FB6A33"/>
<stop offset="1" stop-color="#7AB694"/>
</linearGradient>
<linearGradient id="paint13_linear_105_361" x1="7.10486" y1="148.634" x2="1439.68" y2="148.634" gradientUnits="userSpaceOnUse">
<stop stop-color="#FB6A33"/>
<stop offset="1" stop-color="#7AB694"/>
</linearGradient>
<linearGradient id="paint14_linear_105_361" x1="6.80487" y1="142.922" x2="1439.66" y2="142.922" gradientUnits="userSpaceOnUse">
<stop stop-color="#FB6A33"/>
<stop offset="1" stop-color="#7AB694"/>
</linearGradient>
<linearGradient id="paint15_linear_105_361" x1="6.47156" y1="137.999" x2="1439.64" y2="137.999" gradientUnits="userSpaceOnUse">
<stop stop-color="#FB6A33"/>
<stop offset="1" stop-color="#7AB694"/>
</linearGradient>
<linearGradient id="paint16_linear_105_361" x1="6.10968" y1="134.006" x2="1439.62" y2="134.006" gradientUnits="userSpaceOnUse">
<stop stop-color="#FB6A33"/>
<stop offset="1" stop-color="#7AB694"/>
</linearGradient>
<linearGradient id="paint17_linear_105_361" x1="5.72375" y1="130.738" x2="1439.6" y2="130.738" gradientUnits="userSpaceOnUse">
<stop stop-color="#FB6A33"/>
<stop offset="1" stop-color="#7AB694"/>
</linearGradient>
<linearGradient id="paint18_linear_105_361" x1="5.31873" y1="127.5" x2="1439.57" y2="127.5" gradientUnits="userSpaceOnUse">
<stop stop-color="#FB6A33"/>
<stop offset="1" stop-color="#7AB694"/>
</linearGradient>
<linearGradient id="paint19_linear_105_361" x1="4.89941" y1="124.49" x2="1439.55" y2="124.49" gradientUnits="userSpaceOnUse">
<stop stop-color="#FB6A33"/>
<stop offset="1" stop-color="#7AB694"/>
</linearGradient>
<linearGradient id="paint20_linear_105_361" x1="4.46997" y1="121.668" x2="1439.53" y2="121.668" gradientUnits="userSpaceOnUse">
<stop stop-color="#FB6A33"/>
<stop offset="1" stop-color="#7AB694"/>
</linearGradient>
<linearGradient id="paint21_linear_105_361" x1="4.03503" y1="118.981" x2="1439.5" y2="118.981" gradientUnits="userSpaceOnUse">
<stop stop-color="#FB6A33"/>
<stop offset="1" stop-color="#7AB694"/>
</linearGradient>
<linearGradient id="paint22_linear_105_361" x1="3.6001" y1="116.402" x2="1439.48" y2="116.402" gradientUnits="userSpaceOnUse">
<stop stop-color="#FB6A33"/>
<stop offset="1" stop-color="#7AB694"/>
</linearGradient>
<linearGradient id="paint23_linear_105_361" x1="3.16852" y1="113.9" x2="1439.46" y2="113.9" gradientUnits="userSpaceOnUse">
<stop stop-color="#FB6A33"/>
<stop offset="1" stop-color="#7AB694"/>
</linearGradient>
<linearGradient id="paint24_linear_105_361" x1="2.74585" y1="111.413" x2="1439.43" y2="111.413" gradientUnits="userSpaceOnUse">
<stop stop-color="#FB6A33"/>
<stop offset="1" stop-color="#7AB694"/>
</linearGradient>
<linearGradient id="paint25_linear_105_361" x1="2.33655" y1="108.912" x2="1439.41" y2="108.912" gradientUnits="userSpaceOnUse">
<stop stop-color="#FB6A33"/>
<stop offset="1" stop-color="#7AB694"/>
</linearGradient>
<linearGradient id="paint26_linear_105_361" x1="1.94507" y1="106.39" x2="1439.39" y2="106.39" gradientUnits="userSpaceOnUse">
<stop stop-color="#FB6A33"/>
<stop offset="1" stop-color="#7AB694"/>
</linearGradient>
<linearGradient id="paint27_linear_105_361" x1="1.57593" y1="103.814" x2="1439.37" y2="103.814" gradientUnits="userSpaceOnUse">
<stop stop-color="#FB6A33"/>
<stop offset="1" stop-color="#7AB694"/>
</linearGradient>
<linearGradient id="paint28_linear_105_361" x1="1.23499" y1="101.15" x2="1439.36" y2="101.15" gradientUnits="userSpaceOnUse">
<stop stop-color="#FB6A33"/>
<stop offset="1" stop-color="#7AB694"/>
</linearGradient>
<linearGradient id="paint29_linear_105_361" x1="0.925476" y1="98.3616" x2="1439.34" y2="98.3616" gradientUnits="userSpaceOnUse">
<stop stop-color="#FB6A33"/>
<stop offset="1" stop-color="#7AB694"/>
</linearGradient>
<linearGradient id="paint30_linear_105_361" x1="0.652893" y1="95.4103" x2="1439.33" y2="95.4103" gradientUnits="userSpaceOnUse">
<stop stop-color="#FB6A33"/>
<stop offset="1" stop-color="#7AB694"/>
</linearGradient>
<linearGradient id="paint31_linear_105_361" x1="0.421265" y1="92.0092" x2="1439.32" y2="92.0092" gradientUnits="userSpaceOnUse">
<stop stop-color="#FB6A33"/>
<stop offset="1" stop-color="#7AB694"/>
</linearGradient>
<linearGradient id="paint32_linear_105_361" x1="0.235901" y1="84.4389" x2="1439.32" y2="84.4389" gradientUnits="userSpaceOnUse">
<stop stop-color="#FB6A33"/>
<stop offset="1" stop-color="#7AB694"/>
</linearGradient>
<linearGradient id="paint33_linear_105_361" x1="0.10083" y1="76.0604" x2="1439.32" y2="76.0604" gradientUnits="userSpaceOnUse">
<stop stop-color="#FB6A33"/>
<stop offset="1" stop-color="#7AB694"/>
</linearGradient>
<linearGradient id="paint34_linear_105_361" x1="0.0208739" y1="66.8284" x2="1439.32" y2="66.8284" gradientUnits="userSpaceOnUse">
<stop stop-color="#FB6A33"/>
<stop offset="1" stop-color="#7AB694"/>
</linearGradient>
<linearGradient id="paint35_linear_105_361" x1="0" y1="57.5447" x2="1439.33" y2="57.5447" gradientUnits="userSpaceOnUse">
<stop stop-color="#FB6A33"/>
<stop offset="1" stop-color="#7AB694"/>
</linearGradient>
</defs>
</svg>
